<svg width="22" height="22" viewBox="0 0 22 22" fill="none" xmlns="http://www.w3.org/2000/svg">
    <path d="M10.3333 3.00023H3.33331C2.80288 3.00023 2.29417 3.21094 1.9191 3.58601C1.54403 3.96109 1.33331 4.46979 1.33331 5.00023V19.0002C1.33331 19.5307 1.54403 20.0394 1.9191 20.4144C2.29417 20.7895 2.80288 21.0002 3.33331 21.0002H17.3333C17.8637 21.0002 18.3725 20.7895 18.7475 20.4144C19.1226 20.0394 19.3333 19.5307 19.3333 19.0002V12.0002M17.8333 1.50023C18.2311 1.1024 18.7707 0.878906 19.3333 0.878906C19.8959 0.878906 20.4355 1.1024 20.8333 1.50023C21.2311 1.89805 21.4546 2.43762 21.4546 3.00023C21.4546 3.56284 21.2311 4.1024 20.8333 4.50023L11.3333 14.0002L7.33331 15.0002L8.33331 11.0002L17.8333 1.50023Z"
          stroke="#current" stroke-linecap="round" stroke-linejoin="round"/>
</svg>
