<svg width="24" height="20" viewBox="0 0 24 20" fill="none" xmlns="http://www.w3.org/2000/svg">
    <path d="M16.6667 19V17C16.6667 15.9391 16.2453 14.9217 15.4951 14.1716C14.745 13.4214 13.7276 13 12.6667 13H4.66669C3.60582 13 2.58841 13.4214 1.83826 14.1716C1.08811 14.9217 0.666687 15.9391 0.666687 17V19M22.6667 19V17C22.666 16.1137 22.371 15.2528 21.8281 14.5523C21.2851 13.8519 20.5248 13.3516 19.6667 13.13M15.6667 1.13C16.5271 1.3503 17.2897 1.8507 17.8343 2.55231C18.3789 3.25392 18.6745 4.11683 18.6745 5.005C18.6745 5.89317 18.3789 6.75608 17.8343 7.45769C17.2897 8.1593 16.5271 8.6597 15.6667 8.88M12.6667 5C12.6667 7.20914 10.8758 9 8.66669 9C6.45755 9 4.66669 7.20914 4.66669 5C4.66669 2.79086 6.45755 1 8.66669 1C10.8758 1 12.6667 2.79086 12.6667 5Z"
          stroke="current" stroke-linecap="round" stroke-linejoin="round"/>
</svg>
